<svg width="12" height="9" viewBox="0 0 12 9" fill="none" xmlns="http://www.w3.org/2000/svg">
<g id="formkit:arrowleft">
<path id="Vector" d="M9.375 5H2.625C2.415 5 2.25 4.78 2.25 4.5C2.25 4.22 2.415 4 2.625 4H9.375C9.585 4 9.75 4.22 9.75 4.5C9.75 4.78 9.585 5 9.375 5Z" fill="#888CAD"/>
<path id="Vector_2" d="M4.5 8.5C4.45082 8.5008 4.40206 8.48787 4.35685 8.46203C4.31164 8.4362 4.27098 8.39804 4.2375 8.35L1.6125 4.85C1.4625 4.65 1.4625 4.34 1.6125 4.14L4.2375 0.65C4.3875 0.45 4.62 0.45 4.77 0.65C4.92 0.85 4.92 1.16 4.77 1.36L2.4075 4.51L4.77 7.66C4.92 7.86 4.92 8.17 4.77 8.37C4.695 8.47 4.5975 8.52 4.5075 8.52L4.5 8.5Z" fill="#888CAD"/>
</g>
</svg>
